/vscmnt/brussel_pixiu_data/_data_brussel/112/vsc11236/PredSimResults/SUBJ07mtu3D/weighted-expIG/worker_05.mot
version=1
nRows=4
nColumns=50
inDegrees=yes
endheader
                time	         pelvis_tilt	         pelvis_list	     pelvis_rotation	           pelvis_tx	           pelvis_ty	           pelvis_tz	       hip_flexion_r	     hip_adduction_r	      hip_rotation_r	        knee_angle_r	       ankle_angle_r	         mtp_angle_r	       hip_flexion_l	     hip_adduction_l	      hip_rotation_l	        knee_angle_l	       ankle_angle_l	         mtp_angle_l	    lumbar_extension	      lumbar_bending	     lumbar_rotation	 ercspn_r/activation	 intobl_r/activation	 extobl_r/activation	    abd_r/activation	    add_r/activation	hamstrings_r/activation	bifemsh_r/activation	glut_max_r/activation	iliopsoas_r/activation	rect_fem_r/activation	  vasti_r/activation	gastroc_r/activation	 soleus_r/activation	tib_ant_r/activation	 ercspn_l/activation	 intobl_l/activation	 extobl_l/activation	    abd_l/activation	    add_l/activation	hamstrings_l/activation	bifemsh_l/activation	glut_max_l/activation	iliopsoas_l/activation	rect_fem_l/activation	  vasti_l/activation	gastroc_l/activation	 soleus_l/activation	tib_ant_l/activation	
          0.00000000	         -6.66829438	         -3.80858897	         10.12828569	          0.00000000	          0.84671878	         -0.01528764	         31.09425514	         -0.74352388	         -8.58320720	         -4.30197041	          7.08712963	          0.24643945	        -11.67389248	         -4.30303269	          6.10067393	         -6.96719210	          8.92141124	         27.57622303	         -5.52980198	          1.53547569	         -3.18164653	          0.09319593	          0.18305724	          0.02943858	          0.01197174	          0.15340339	          0.04900873	          0.18064453	          0.01555387	          0.07539404	          0.01000000	          0.01000000	          0.01406124	          0.00999999	          0.27221759	          0.03742418	          0.00999999	          0.00999999	          0.04195573	          0.06246722	          0.03180414	          0.13839129	          0.03881389	          0.41492720	          0.01000000	          0.00999999	          0.30727859	          0.27430588	          0.01715825	
          0.01183053	         -6.75244921	         -3.64859394	         10.04959295	          0.01600030	          0.84476007	         -0.01485666	         31.24259089	         -0.60118415	         -7.75919596	         -6.18783321	          6.77581145	          0.23737111	        -11.78159928	         -4.16114609	          5.53768914	         -8.71040437	          8.33093840	         29.28950080	         -5.33015105	          2.00939950	         -3.25218208	          0.07784651	          0.15956105	          0.02459003	          0.00999999	          0.20955137	          0.04681807	          0.15089228	          0.07772354	          0.06297660	          0.01000000	          0.00999999	          0.02309603	          0.01952443	          0.27958392	          0.08883227	          0.00999999	          0.00999999	          0.03504559	          0.11302773	          0.02656598	          0.11559817	          0.03242122	          0.42961985	          0.01000000	          0.01000000	          0.26349790	          0.25801023	          0.01433228	
          0.02366105	         -6.81866261	         -3.48881614	          9.90886208	          0.03232704	          0.84299948	         -0.01438725	         31.17834868	         -0.46561715	         -6.90662644	         -7.89551709	          6.43004489	          0.23135135	        -11.70974886	         -4.00054138	          4.92449152	        -10.85933191	          7.61524407	         30.98512502	         -5.11231680	          2.50690574	         -3.30171886	          0.07517259	          0.13328126	          0.02054004	          0.06022336	          0.20146620	          0.05536441	          0.12604025	          0.10184067	          0.05260432	          0.00999999	          0.00999999	          0.01929211	          0.01630874	          0.32190447	          0.11214905	          0.00999999	          0.00999999	          0.02927357	          0.11059504	          0.02368131	          0.09655909	          0.02708143	          0.41479269	          0.01000000	          0.00999999	          0.22009966	          0.23924581	          0.01197175	
          0.03549158	         -6.86879234	         -3.32488135	          9.70711771	          0.04876382	          0.84159778	         -0.01381672	         30.93889014	         -0.30582317	         -6.13857955	         -9.30820148	          6.00973390	          0.21580351	        -11.39131022	         -3.82262666	          4.26996709	        -13.48681899	          6.71584165	         32.59128293	         -4.89812040	          3.00932402	         -3.32903093	          0.08446461	          0.11132977	          0.01715708	          0.10424684	          0.20845702	          0.05225079	          0.10528136	          0.13428674	          0.04394036	          0.00999999	          0.00999999	          0.01611469	          0.01362269	          0.34314910	          0.14244263	          0.00999999	          0.00999999	          0.02445219	          0.11710497	          0.02411533	          0.08065576	          0.02262110	          0.39118257	          0.00999999	          0.00999999	          0.18384912	          0.20224326	          0.00999999	
